<svg width="8" height="13" viewBox="0 0 8 13" fill="none" xmlns="http://www.w3.org/2000/svg">
<path d="M5.86442 2.44777H7.62256C7.78431 2.44777 7.91558 2.33323 7.91558 2.19209V0.658022C7.91558 0.516888 7.78431 0.402344 7.62256 0.402344H5.86442C4.08753 0.402344 2.64118 1.66386 2.64118 3.21481V5.00455H0.590019C0.428271 5.00455 0.296997 5.1191 0.296997 5.26023V6.7943C0.296997 6.93544 0.428271 7.04998 0.590019 7.04998H2.64118V12.4192C2.64118 12.5604 2.77245 12.6749 2.9342 12.6749H4.69233C4.85408 12.6749 4.98536 12.5604 4.98536 12.4192V7.04998H7.03651C7.16251 7.04998 7.27445 6.97941 7.31488 6.8751L7.90093 5.34103C7.93082 5.2633 7.91558 5.17739 7.86049 5.1104C7.80482 5.04393 7.71691 5.00455 7.62256 5.00455H4.98536V3.21481C4.98536 2.79191 5.37976 2.44777 5.86442 2.44777Z" fill="#0A142F"/>
</svg>
