<svg width="25" height="24" viewBox="0 0 25 24" fill="none" xmlns="http://www.w3.org/2000/svg">
<path d="M21.7879 7.75H3.7879C3.3779 7.75 3.0379 7.41 3.0379 7C3.0379 6.59 3.3779 6.25 3.7879 6.25H21.7879C22.1979 6.25 22.5379 6.59 22.5379 7C22.5379 7.41 22.1979 7.75 21.7879 7.75Z" fill="#292D32"/>
<path d="M21.7879 12.75H3.7879C3.3779 12.75 3.0379 12.41 3.0379 12C3.0379 11.59 3.3779 11.25 3.7879 11.25H21.7879C22.1979 11.25 22.5379 11.59 22.5379 12C22.5379 12.41 22.1979 12.75 21.7879 12.75Z" fill="#292D32"/>
<path d="M21.7879 17.75H3.7879C3.3779 17.75 3.0379 17.41 3.0379 17C3.0379 16.59 3.3779 16.25 3.7879 16.25H21.7879C22.1979 16.25 22.5379 16.59 22.5379 17C22.5379 17.41 22.1979 17.75 21.7879 17.75Z" fill="#292D32"/>
</svg>
