<svg width="102" height="101" viewBox="0 0 102 101" fill="none" xmlns="http://www.w3.org/2000/svg">
<g clip-path="url(#clip0_0_343)">
<path d="M23.115 28.2987C17.2375 28.2987 11.6006 30.6336 7.44454 34.7896C3.28847 38.9457 0.953613 44.5825 0.953613 50.4601C0.953613 56.3377 3.28847 61.9745 7.44454 66.1306C11.6006 70.2867 17.2375 72.6215 23.115 72.6215C28.9179 72.5086 34.4451 70.1242 38.5091 65.9804C42.573 61.8366 44.8495 56.2641 44.8495 50.4601C44.8495 44.6561 42.573 39.0836 38.5091 34.9398C34.4451 30.796 28.9179 28.4116 23.115 28.2987ZM23.115 31.9042C23.3246 31.9042 23.7691 31.9042 23.9954 31.9126V33.6441C23.702 33.6378 23.4085 33.6336 23.115 33.6315C20.906 33.626 18.7177 34.0585 16.6769 34.9041C14.636 35.7497 12.783 36.9915 11.2252 38.5577C9.6582 40.115 8.4159 41.9678 7.57029 44.0088C6.72468 46.0498 6.29257 48.2383 6.29902 50.4475C6.29902 54.9419 8.04728 59.1679 11.2252 62.3374C12.783 63.9036 14.636 65.1454 16.6769 65.991C18.7177 66.8365 20.906 67.2691 23.115 67.2635C27.3778 67.2557 31.4792 65.6333 34.5933 62.7231C37.7073 59.8128 39.6026 55.831 39.8975 51.5795V51.328H28.4185V49.609H40.9163L41.6583 49.6048V50.4475C41.6661 52.8836 41.1906 55.2969 40.2593 57.548C39.3281 59.799 37.9597 61.843 36.2333 63.5616C34.5135 65.2894 32.4683 66.6592 30.2159 67.5919C27.9636 68.5245 25.5487 69.0014 23.1108 68.995C18.1637 68.995 13.5101 67.0665 9.98839 63.5616C8.26271 61.8426 6.89506 59.7985 5.96457 57.5475C5.03409 55.2965 4.55925 52.8833 4.56752 50.4475C4.57307 45.5298 6.52882 40.8149 10.0058 37.3371C13.4828 33.8593 18.1972 31.9025 23.115 31.8958V31.9042ZM90.4587 35.5852C81.1934 35.5852 76.3217 40.6455 76.3217 50.2924C76.3217 59.8932 80.7238 65.0918 90.4084 65.0918C94.8524 65.0918 99.2084 63.9599 101.573 62.3039V48.4016H90.0856V53.7428H95.4729V58.7528C94.4793 59.1301 92.5382 59.5117 90.6935 59.5117C84.7402 59.5117 82.753 56.4847 82.753 50.3385C82.753 44.4775 84.6396 41.0229 90.6013 41.0229C93.9133 41.0229 95.7999 42.0626 97.3637 44.0498L101.481 40.2682C98.9736 36.6753 94.5757 35.5852 90.4545 35.5852H90.4587ZM55.1874 36.0129V64.6642H75.5209V59.0882H61.8116V36.0087L55.1874 36.0129ZM16.0381 40.721C16.7442 40.721 17.4213 41.0015 17.9206 41.5007C18.4199 42 18.7003 42.6772 18.7003 43.3832C18.7003 44.0893 18.4199 44.7664 17.9206 45.2657C17.4213 45.765 16.7442 46.0454 16.0381 46.0454C15.3321 46.0454 14.6549 45.765 14.1557 45.2657C13.6564 44.7664 13.3759 44.0893 13.3759 43.3832C13.3759 42.6772 13.6564 42 14.1557 41.5007C14.6549 41.0015 15.3321 40.721 16.0381 40.721ZM22.2346 40.7294H23.9954V58.4216H28.4059V60.1573H22.2346V40.7294Z" fill="#A9A9B9"/>
</g>
<defs>
<clipPath id="clip0_0_343">
<rect width="100.619" height="100.619" fill="white" transform="translate(0.955566 0.151245)"/>
</clipPath>
</defs>
</svg>
