<svg width="14" height="13" viewBox="0 0 14 13" fill="none" xmlns="http://www.w3.org/2000/svg">
<path d="M2.07496 3.40563C2.97059 3.40563 3.69664 2.73332 3.69664 1.90399C3.69664 1.07465 2.97059 0.402344 2.07496 0.402344C1.17933 0.402344 0.453278 1.07465 0.453278 1.90399C0.453278 2.73332 1.17933 3.40563 2.07496 3.40563Z" fill="#0A142F"/>
<path d="M3.42636 4.4082H0.723558C0.574363 4.4082 0.453278 4.52033 0.453278 4.65848V12.1667C0.453278 12.3048 0.574363 12.417 0.723558 12.417H3.42636C3.57556 12.417 3.69664 12.3048 3.69664 12.1667V4.65848C3.69664 4.52033 3.57556 4.4082 3.42636 4.4082Z" fill="#0A142F"/>
<path d="M11.4808 3.99164C10.3256 3.62524 8.88069 3.94709 8.01417 4.52422C7.98444 4.4166 7.87849 4.33651 7.75254 4.33651H5.04973C4.90054 4.33651 4.77945 4.44864 4.77945 4.58679V12.095C4.77945 12.2331 4.90054 12.3453 5.04973 12.3453H7.75254C7.90173 12.3453 8.02282 12.2331 8.02282 12.095V6.6991C8.45959 6.35072 9.02231 6.23959 9.48287 6.42079C9.92937 6.59548 10.1851 7.02195 10.1851 7.59007V12.095C10.1851 12.2331 10.3061 12.3453 10.4553 12.3453H13.1581C13.3073 12.3453 13.4284 12.2331 13.4284 12.095V7.08602C13.3976 5.02927 12.3527 4.26794 11.4808 3.99164Z" fill="#0A142F"/>
</svg>
