<svg viewBox="0 0 247 53" fill="none" xmlns="http://www.w3.org/2000/svg">
<g clip-path="url(#clip0_0_328)">
<path d="M246.453 23.7935V19.4676H241.082V12.7431L240.901 12.7983L235.856 14.3423L235.757 14.3726V19.4676H227.793V16.6294C227.793 15.3079 228.089 14.2962 228.671 13.6222C229.25 12.9554 230.077 12.6168 231.132 12.6168C231.891 12.6168 232.676 12.7955 233.467 13.1476L233.665 13.236V8.68094L233.571 8.64732C232.834 8.38166 231.831 8.2486 230.588 8.2486C229.021 8.2486 227.598 8.58919 226.356 9.2651C225.132 9.92315 224.124 10.9198 223.452 12.1359C222.77 13.3628 222.424 14.7795 222.424 16.3474V19.468H218.684V23.7939H222.424V42.0165H227.793V23.7935H235.757V35.3737C235.757 40.143 238.006 42.5603 242.443 42.5603C243.209 42.5558 243.974 42.4708 244.723 42.3066C245.52 42.1351 246.063 41.9636 246.383 41.7806L246.453 41.7388V37.373L246.235 37.5176C245.944 37.7122 245.581 37.8707 245.155 37.9884C244.728 38.1085 244.371 38.169 244.095 38.169C243.055 38.169 242.286 37.889 241.809 37.3361C241.327 36.7788 241.082 35.8031 241.082 34.4388V23.7935H246.453ZM206.693 38.1695C204.744 38.1695 203.207 37.5229 202.124 36.2504C201.035 34.9706 200.483 33.1471 200.483 30.8292C200.483 28.4383 201.035 26.5672 202.125 25.2649C203.208 23.9717 204.73 23.315 206.649 23.315C208.51 23.315 209.992 23.9419 211.054 25.1799C212.121 26.4236 212.662 28.2798 212.662 30.6985C212.662 33.1471 212.153 35.0283 211.149 36.2864C210.152 37.5354 208.653 38.1695 206.693 38.1695ZM206.932 18.9242C203.214 18.9242 200.26 20.0138 198.155 22.1625C196.051 24.3118 194.984 27.2854 194.984 31.0026C194.984 34.533 196.025 37.3726 198.079 39.4416C200.133 41.5111 202.929 42.5593 206.388 42.5593C209.992 42.5593 212.886 41.4549 214.991 39.2763C217.095 37.1002 218.162 34.1544 218.162 30.5237C218.162 26.9386 217.161 24.0778 215.187 22.0227C213.212 19.9667 210.434 18.9242 206.932 18.9242ZM186.326 18.9242C183.797 18.9242 181.705 19.5713 180.107 20.8468C178.499 22.1299 177.684 23.8131 177.684 25.8495C177.684 26.9078 177.859 27.8479 178.206 28.6454C178.554 29.4457 179.094 30.1499 179.811 30.7413C180.522 31.3279 181.619 31.9423 183.074 32.5668C184.297 33.0702 185.209 33.4963 185.789 33.8316C186.355 34.1607 186.757 34.4912 186.984 34.8131C187.204 35.1277 187.316 35.5591 187.316 36.0909C187.316 37.606 186.182 38.3429 183.848 38.3429C182.982 38.3429 181.994 38.1623 180.912 37.8059C179.838 37.4547 178.824 36.9406 177.906 36.2816L177.684 36.1221V41.2911L177.765 41.3295C178.525 41.6802 179.483 41.9756 180.612 42.2086C181.739 42.4411 182.762 42.5598 183.652 42.5598C186.396 42.5598 188.607 41.9098 190.219 40.6267C191.842 39.3345 192.665 37.6123 192.665 35.5048C192.665 33.9854 192.222 32.6816 191.349 31.6305C190.482 30.5881 188.978 29.6306 186.88 28.7847C185.208 28.1136 184.137 27.5568 183.695 27.1293C183.269 26.7161 183.053 26.132 183.053 25.3927C183.053 24.7365 183.32 24.2114 183.868 23.7858C184.42 23.3582 185.189 23.1406 186.153 23.1406C187.048 23.1406 187.963 23.2818 188.873 23.5585C189.783 23.8357 190.581 24.2071 191.249 24.6606L191.468 24.8104V19.9066L191.384 19.8706C190.769 19.6064 189.957 19.3806 188.972 19.1981C187.99 19.0165 187.1 18.9242 186.326 18.9242ZM163.685 38.1695C161.737 38.1695 160.2 37.5229 159.117 36.2504C158.028 34.9706 157.477 33.1471 157.477 30.8292C157.477 28.4383 158.028 26.5672 159.119 25.2649C160.201 23.9717 161.723 23.315 163.642 23.315C165.504 23.315 166.986 23.9419 168.047 25.1799C169.114 26.4236 169.656 28.2798 169.656 30.6985C169.656 33.1471 169.147 35.0283 168.143 36.2864C167.145 37.5354 165.646 38.1695 163.685 38.1695ZM163.925 18.9242C160.206 18.9242 157.253 20.0138 155.149 22.1625C153.044 24.3118 151.977 27.2854 151.977 31.0026C151.977 34.5344 153.019 37.3726 155.073 39.4416C157.127 41.5111 159.922 42.5593 163.381 42.5593C166.984 42.5593 169.88 41.4549 171.985 39.2763C174.089 37.1002 175.156 34.1544 175.156 30.5237C175.156 26.9386 174.155 24.0778 172.18 22.0227C170.204 19.9667 167.427 18.9242 163.925 18.9242ZM143.826 23.3726V19.4676H138.522V42.0155H143.825V30.4809C143.825 28.5195 144.27 26.9083 145.148 25.6915C146.014 24.4891 147.169 23.8794 148.578 23.8794C149.056 23.8794 149.592 23.9582 150.173 24.1144C150.748 24.269 151.164 24.4372 151.41 24.614L151.633 24.7758V19.4291L151.546 19.3921C151.053 19.1822 150.354 19.0765 149.47 19.0765C148.137 19.0765 146.944 19.5046 145.923 20.3476C145.026 21.0889 144.377 22.1054 143.882 23.3726H143.826ZM129.024 18.9242C126.59 18.9242 124.42 19.4464 122.573 20.4749C120.724 21.5054 119.293 22.9778 118.32 24.8489C117.351 26.7161 116.859 28.8971 116.859 31.3293C116.859 33.4593 117.336 35.4145 118.278 37.1372C119.222 38.8632 120.557 40.2136 122.247 41.1503C123.935 42.0857 125.886 42.5598 128.046 42.5598C130.566 42.5598 132.718 42.0559 134.444 41.0624L134.513 41.0221V36.1629L134.291 36.3258C133.497 36.9012 132.623 37.3563 131.696 37.6767C130.758 38.0038 129.904 38.169 129.155 38.169C127.073 38.169 125.403 37.5181 124.19 36.2345C122.975 34.9485 122.358 33.1437 122.358 30.872C122.358 28.5863 123.001 26.7349 124.267 25.3682C125.53 24.0063 127.204 23.3155 129.242 23.3155C130.986 23.3155 132.684 23.9059 134.291 25.0718L134.513 25.2332V20.1132L134.442 20.0729C133.837 19.7342 133.012 19.4546 131.988 19.2427C130.969 19.0314 129.971 18.9242 129.024 18.9242ZM113.206 19.4676H107.901V42.0155H113.206V19.4676ZM110.608 9.86222C109.735 9.86222 108.974 10.1596 108.348 10.7481C107.72 11.3389 107.401 12.0826 107.401 12.9598C107.401 13.8235 107.716 14.5532 108.338 15.1282C108.956 15.7013 109.72 15.992 110.608 15.992C111.496 15.992 112.262 15.7013 112.888 15.1292C113.517 14.5532 113.837 13.8235 113.837 12.9598C113.837 12.1133 113.526 11.3769 112.914 10.7721C112.302 10.1682 111.526 9.86222 110.608 9.86222ZM97.3743 17.8045V42.015H102.787V10.5525H95.2956L85.7729 33.9219L76.5322 10.5525H68.7355V42.0155H73.8223V17.8021H73.9972L83.7553 42.0155H87.5936L97.1994 17.804L97.3743 17.8045Z" fill="#A9A9B9"/>
<path d="M25.4463 24.9905H0.495422V0.0396729H25.4463V24.9905Z" fill="#A9A9B9"/>
<path d="M52.9969 24.9905H28.046V0.0396118H52.9969V24.9905Z" fill="#A9A9B9"/>
<path d="M25.4456 52.55H0.495239V27.5992H25.4456V52.55Z" fill="#A9A9B9"/>
<path d="M52.9969 52.55H28.046V27.5992H52.9969V52.55Z" fill="#A9A9B9"/>
</g>
<defs>
<clipPath id="clip0_0_328">
<rect width="245.958" height="52.8426" fill="white" transform="translate(0.495239 0.0396118)"/>
</clipPath>
</defs>
</svg>
