<svg viewBox="0 0 172 57" fill="none" xmlns="http://www.w3.org/2000/svg">
<g clip-path="url(#clip0_0_334)">
<path d="M165.994 34.6743L170.735 37.8348C169.196 40.1012 165.516 43.9897 159.153 43.9897C151.252 43.9897 145.368 37.8766 145.368 30.0999C145.368 21.8246 151.315 16.2105 158.488 16.2105C165.703 16.2105 169.238 21.9491 170.382 25.0472L171.005 26.6277L152.417 34.3208C153.831 37.1072 156.035 38.5211 159.153 38.5211C162.273 38.5211 164.435 36.9824 165.994 34.6743ZM151.419 29.6637L163.832 24.5068C163.146 22.7812 161.108 21.5546 158.675 21.5546C155.577 21.5546 151.273 24.2992 151.419 29.6637Z" fill="#A9A9B9"/>
<path d="M136.405 2.05166H142.393V42.7222H136.405V2.05133V2.05166Z" fill="#A9A9B9"/>
<path d="M126.964 17.2918H132.745V41.9935C132.745 52.2441 126.694 56.465 119.541 56.465C112.805 56.465 108.75 51.9324 107.232 48.2522L112.534 46.0479C113.49 48.3142 115.799 50.9968 119.541 50.9968C124.136 50.9968 126.964 48.148 126.964 42.8253V40.8293H126.756C125.384 42.4925 122.764 43.9895 119.437 43.9895C112.492 43.9895 106.13 37.9388 106.13 30.1418C106.13 22.3028 112.492 16.19 119.437 16.19C122.743 16.19 125.384 17.6663 126.756 19.2881H126.964V17.2921V17.2918ZM127.38 30.1418C127.38 25.2347 124.116 21.6582 119.957 21.6582C115.757 21.6582 112.222 25.2347 112.222 30.1418C112.222 34.9862 115.757 38.5002 119.957 38.5002C124.116 38.5213 127.38 34.9862 127.38 30.1418H127.38Z" fill="#A9A9B9"/>
<path d="M73.2583 30.0386C73.2583 38.0439 67.0207 43.928 59.3689 43.928C51.7174 43.928 45.4795 38.0232 45.4795 30.0386C45.4795 21.9919 51.7174 16.1285 59.3689 16.1285C67.0207 16.1285 73.2583 21.9919 73.2583 30.0386ZM67.1869 30.0386C67.1869 25.0486 63.5688 21.6174 59.3689 21.6174C55.169 21.6174 51.5509 25.0486 51.5509 30.0386C51.5509 34.9871 55.169 38.4597 59.3689 38.4597C63.5691 38.4597 67.1869 34.9871 67.1869 30.0386Z" fill="#A9A9B9"/>
<path d="M103.594 30.0999C103.594 38.1052 97.3563 43.9893 89.7048 43.9893C82.053 43.9893 75.8154 38.1049 75.8154 30.0999C75.8154 22.0533 82.053 16.2105 89.7048 16.2105C97.3563 16.2105 103.594 22.0326 103.594 30.0999ZM97.5018 30.0999C97.5018 25.11 93.884 21.6788 89.6838 21.6788C85.4839 21.6788 81.8658 25.11 81.8658 30.0999C81.8658 35.0485 85.4839 38.5211 89.6838 38.5211C93.9047 38.5211 97.5018 35.0278 97.5018 30.0999Z" fill="#A9A9B9"/>
<path d="M22.6487 37.897C13.9365 37.897 7.11678 30.869 7.11678 22.1568C7.11678 13.445 13.9365 6.41697 22.6487 6.41697C27.3479 6.41697 30.7785 8.26742 33.3152 10.6379L37.4947 6.45869C33.96 3.06954 29.2401 0.490784 22.6487 0.490784C10.7139 0.491117 0.670898 10.2223 0.670898 22.1568C0.670898 34.092 10.7139 43.8229 22.6487 43.8229C29.0946 43.8229 33.96 41.7021 37.7651 37.7515C41.6739 33.8423 42.8798 28.353 42.8798 23.9035C42.8798 22.5103 42.7136 21.0757 42.5264 20.0153H22.6487V25.7957H36.8085C36.3926 29.4138 35.2491 31.8881 33.5648 33.572C31.5271 35.6307 28.3045 37.897 22.6487 37.897Z" fill="#A9A9B9"/>
</g>
<defs>
<clipPath id="clip0_0_334">
<rect width="170.893" height="56.0743" fill="white" transform="translate(0.422852 0.405823)"/>
</clipPath>
</defs>
</svg>
