<svg viewBox="0 0 175 175" fill="none" xmlns="http://www.w3.org/2000/svg">
<g clip-path="url(#clip0_0_326)">
<path d="M144.405 74.9098L144.74 94.5408H144.572L138.889 74.9171H129.54V99.6343H135.719L135.384 79.3402H135.551L141.643 99.6343H150.584V74.9171L144.405 74.9098ZM26.7211 74.9098L22.0502 99.8894H28.8125L32.2373 77.1688H32.4049L35.7496 99.8894H42.4244L37.8337 74.9171L26.7211 74.9098ZM64.4746 74.9098L61.385 93.9578H61.2174L58.1277 74.9171H47.9479L47.4451 99.8894H53.7119L53.8795 77.4238H53.9596L58.135 99.8894H64.4819L68.6573 77.4238H68.8249L68.9925 99.8894H75.2593L74.6763 74.9171L64.4746 74.9098ZM11.5279 92.7919C11.7178 93.3859 11.7455 94.0199 11.6081 94.6282C11.4405 95.4589 10.8575 96.2969 9.1888 96.2969C7.60025 96.2969 6.6821 95.3788 6.6821 94.038V91.6187H0V93.5425C0 99.1388 4.42316 100.808 9.10865 100.808C13.612 100.808 17.372 99.219 17.955 95.1237C18.2902 92.9522 18.0424 91.5386 17.955 91.0358C16.7891 85.7746 7.26506 84.2662 6.59466 81.3442C6.51127 80.9036 6.51127 80.4512 6.59466 80.0106C6.76226 79.1727 7.3525 78.3347 8.8536 78.3347C10.3547 78.3347 11.1854 79.2601 11.1854 80.5936V82.0947H17.4522V80.3458C17.4522 74.9171 12.5262 74.0791 9.0212 74.0791C4.59076 74.0791 0.918151 75.5802 0.247755 79.5953C0.0284526 80.7004 0.0583251 81.8406 0.335198 82.9327C1.33351 88.1064 10.2746 89.6148 11.5279 92.7846M92.7916 92.7846C93.0394 93.3676 92.9519 94.1254 92.8717 94.6282C92.7042 95.4589 92.1212 96.2969 90.4525 96.2969C88.864 96.2969 87.9458 95.3788 87.9458 94.038V91.6187H81.2637V93.5425C81.2637 99.0514 85.6067 100.72 90.2849 100.72C94.7955 100.72 98.4681 99.219 99.0511 95.0436C99.3863 92.8721 99.1385 91.5386 99.0511 90.9483C98.0528 85.7746 88.6089 84.1861 87.9458 81.3442C87.8617 80.9036 87.8617 80.4512 87.9458 80.0106C88.1134 79.1727 88.6964 78.3347 90.2047 78.3347C91.6184 78.3347 92.5366 79.2601 92.5366 80.5936V82.0947H98.7159V80.3458C98.7159 74.9171 93.8701 74.0791 90.3651 74.0791C85.9419 74.0791 82.3494 75.5001 81.679 79.5953C81.5114 80.681 81.5115 81.6793 81.7665 82.9327C82.7648 88.1064 91.531 89.5274 92.7916 92.7846ZM113.836 96.1293C115.585 96.1293 116.095 94.9634 116.255 94.293C116.343 94.038 116.343 93.6226 116.343 93.3749V74.9098H122.683V92.8648C122.683 93.3676 122.683 94.2857 122.61 94.5408C122.187 99.2117 118.514 100.713 113.916 100.713C109.326 100.713 105.653 99.2117 105.23 94.5335C105.23 94.2857 105.15 93.3676 105.15 92.8648V74.9098H111.49V93.3676C111.49 93.7028 111.49 94.0307 111.577 94.2857C111.577 94.9488 112.087 96.122 113.836 96.122M165.952 95.8743C167.789 95.8743 168.371 94.7084 168.539 94.0307C168.619 93.7829 168.619 93.3676 168.619 93.1125V89.5201H166.032V85.8475H174.886V92.5296C174.886 93.0324 174.886 93.3676 174.806 94.2056C174.383 98.7963 170.456 100.378 166.032 100.378C161.609 100.378 157.682 98.7963 157.266 94.1983C157.179 93.3676 157.179 93.0324 157.179 92.5296V82.0073C157.179 81.5919 157.266 80.7539 157.266 80.3313C157.849 75.6604 161.609 74.1593 166.032 74.1593C170.456 74.1593 174.303 75.6604 174.799 80.3386C174.886 81.0891 174.886 82.0073 174.886 82.0073V82.8453H168.619V81.4243C168.619 81.4243 168.619 80.8414 168.539 80.5062C168.452 79.9232 167.956 78.6699 166.032 78.6699C164.196 78.6699 163.701 79.8358 163.526 80.5062C163.446 80.8341 163.446 81.2567 163.446 81.6721V93.1125C163.446 93.4477 163.446 93.7829 163.526 94.0307C163.526 94.7011 164.196 95.8743 165.952 95.8743Z" fill="#A9A9B9"/>
</g>
<defs>
<clipPath id="clip0_0_326">
<rect width="174.886" height="174.886" fill="white"/>
</clipPath>
</defs>
</svg>
