<svg viewBox="0 0 156 155" fill="none" xmlns="http://www.w3.org/2000/svg">
<g clip-path="url(#clip0_0_345)">
<path d="M55.7737 63.8271C61.7188 63.8271 66.4762 65.3118 70.1104 68.6168C72.5956 70.8696 73.9835 74.0778 73.9447 77.4409C73.9356 79.1003 73.5913 80.7408 72.9324 82.2638C72.2735 83.7868 71.3136 85.1609 70.1104 86.3037C66.7086 89.428 61.409 91.0934 55.7801 91.0934C50.1449 91.0934 44.9356 89.428 41.4821 86.3037C40.237 85.1909 39.2453 83.8239 38.5738 82.2949C37.9023 80.7659 37.5667 79.1107 37.5897 77.4409C37.5897 74.0972 38.9969 70.889 41.4821 68.6168C44.7097 65.6862 50.416 63.8271 55.7737 63.8271ZM55.7931 87.5173C58.7689 87.5173 61.5252 86.478 63.4617 84.5609C65.3982 82.6243 66.2567 80.3005 66.2567 77.4409C66.2567 74.704 65.3014 72.1413 63.4617 70.321C61.5639 68.449 58.7301 67.3839 55.7931 67.3839C52.856 67.3839 50.0287 68.4425 48.1115 70.321C46.2718 72.1413 45.31 74.704 45.31 77.4409C45.2707 80.0904 46.2773 82.6486 48.1115 84.5609C50.0287 86.4587 52.8431 87.5173 55.7931 87.5173ZM24.544 74.8137C25.5768 75.0848 26.5774 75.4205 27.5521 75.8659C28.4564 76.2777 29.2838 76.8409 29.9986 77.5313C31.2702 78.861 31.9932 80.6426 31.9738 82.4759C31.9877 83.4479 31.7736 84.4096 31.3487 85.284C30.9239 86.1583 30.3001 86.921 29.5273 87.5108C28.1604 88.547 26.6065 89.3097 24.9507 89.7572C22.4583 90.5394 19.855 90.9101 17.2433 90.8546C14.9711 90.8546 13.7189 90.5899 11.9954 90.2284L11.4983 90.1251C9.59911 89.7051 7.7445 89.1042 5.95986 88.3306C5.88006 88.2765 5.78507 88.2494 5.68875 88.2532C5.54719 88.2565 5.41256 88.3151 5.31365 88.4165C5.21474 88.5178 5.15939 88.6538 5.15943 88.7954V90.1058H1.36384V80.5652H4.7463C4.76713 81.5323 5.07494 82.4715 5.63065 83.2634C6.99913 84.9417 8.47088 85.5872 9.87164 86.1036C12.2406 86.8782 14.7259 87.2914 17.2046 87.3688C20.7743 87.3688 22.8592 86.5038 23.3111 86.3166L23.3692 86.2908L23.4079 86.2779C23.8081 86.1294 25.4219 85.542 25.4219 83.7475C25.4219 81.9788 23.9114 81.5915 22.9238 81.3398L22.7818 81.3075C21.6844 81.0106 19.154 80.7395 16.3913 80.449L15.4101 80.3457C12.8193 80.0819 10.2413 79.705 7.68336 79.2161C4.46874 78.506 3.20354 77.3312 2.41602 76.6017L2.36438 76.5501C1.21636 75.326 0.579093 73.7098 0.58278 72.0316C0.58278 68.8298 2.77751 66.8933 5.46927 65.7056C8.34824 64.4146 11.7694 63.8401 14.7646 63.8401C20.0577 63.8594 24.3633 65.5829 25.9125 66.3834C26.5386 66.719 26.8485 66.3059 26.8485 65.9961V65.0342H30.2503V73.3484H27.2035C26.93 72.1146 26.2641 71.0026 25.3057 70.1789C24.7216 69.7092 24.0767 69.3205 23.3886 69.0235C20.8347 67.9451 18.0853 67.4067 15.3133 67.442C12.4537 67.442 9.71671 67.9907 8.34178 68.8298C7.48971 69.3592 7.05077 70.024 7.05077 70.8051C7.05077 71.9218 7.99321 72.3672 8.47088 72.5028C9.73608 72.8901 12.5505 73.1677 14.7388 73.3871L16.0556 73.5227C18.1664 73.7357 22.5881 74.3231 24.544 74.8137ZM141.813 68.378V65.286H155.505V68.3199H152.432C151.322 68.3199 150.87 68.5329 150.031 69.4753L140.819 79.9971C140.722 80.1265 140.678 80.2882 140.697 80.449V85.2386C140.712 85.4614 140.738 85.6832 140.774 85.9035C140.829 86.0439 140.916 86.1696 141.028 86.2704C141.14 86.3713 141.274 86.4446 141.42 86.4845C141.698 86.5254 141.978 86.547 142.259 86.549H145.396V89.5829H128.781V86.549H131.75C132.031 86.5471 132.311 86.5255 132.589 86.4845C132.737 86.4424 132.873 86.3686 132.989 86.2683C133.105 86.1679 133.198 86.0434 133.26 85.9035C133.299 85.6905 133.318 85.4745 133.319 85.258V80.4683C133.319 80.307 133.319 80.307 133.106 80.0552C130.073 76.6007 127.035 73.1515 123.991 69.7077C123.5 69.1978 122.661 68.378 121.37 68.378H118.414V65.3441H135.119V68.378H133.106C132.654 68.378 132.344 68.8298 132.731 69.3204L138.405 76.1047C138.463 76.1822 138.502 76.1822 138.579 76.1241C138.657 76.066 144.35 69.3785 144.389 69.3204C144.436 69.2587 144.47 69.1882 144.49 69.1132C144.509 69.0381 144.514 68.9599 144.503 68.8831C144.492 68.8063 144.466 68.7323 144.427 68.6656C144.387 68.5988 144.335 68.5406 144.273 68.4942C144.158 68.4187 144.023 68.3784 143.885 68.378H141.813ZM101.25 68.3586H104.38C105.807 68.3586 106.059 68.9073 106.078 70.237L106.259 80.3457L89.5918 65.3441H77.6822V68.378H80.3417C82.2589 68.378 82.3944 69.4366 82.3944 70.3791V84.6641C82.3944 85.4904 82.4009 86.5684 81.2196 86.5684H77.9533V89.5829H91.9221V86.549H88.5138C87.1454 86.549 87.0937 85.9229 87.0679 84.5931V72.4447L106.259 89.5571H111.145L110.887 70.2177C110.913 68.8105 111.01 68.3392 112.456 68.3392H115.509V65.3054H101.25V68.3586Z" fill="#A9A9B9"/>
</g>
<defs>
<clipPath id="clip0_0_345">
<rect width="154.922" height="154.922" fill="white" transform="translate(0.582764)"/>
</clipPath>
</defs>
</svg>
