<svg viewBox="0 0 179 47" fill="none" xmlns="http://www.w3.org/2000/svg">
<path d="M57.5565 36.4758L59.7894 31.2815C62.2005 33.0858 65.3982 34.0224 68.5606 34.0224C70.9029 34.0224 72.3703 33.1211 72.3703 31.7489C72.3351 27.9321 58.3837 30.9217 58.2814 21.3321C58.2461 16.4676 62.5585 12.7125 68.67 12.7125C72.3016 12.7125 75.9314 13.6156 78.5224 15.6757L76.4358 20.974C74.0653 19.4572 71.1163 18.376 68.3119 18.376C66.4035 18.376 65.1495 19.279 65.1495 20.429C65.1848 24.177 79.2384 22.124 79.3831 31.2815C79.3831 36.2553 75.1818 39.7546 69.1391 39.7546C64.7156 39.7546 60.6501 38.7105 57.5565 36.4758ZM143.099 29.4066C142.402 30.6495 141.312 31.6257 140.001 32.1822C138.689 32.7386 137.229 32.8438 135.851 32.4811C134.473 32.1185 133.255 31.3085 132.387 30.1784C131.519 29.0483 131.051 27.662 131.056 26.2371C131.054 25.3904 131.219 24.5515 131.541 23.7685C131.863 22.9855 132.337 22.2738 132.935 21.6741C133.533 21.0745 134.243 20.5987 135.025 20.274C135.807 19.9492 136.645 19.782 137.492 19.7817C139.896 19.7817 141.984 21.1187 143.101 23.0623L149.246 19.6371C146.944 15.531 142.521 12.7125 137.492 12.7125C130.044 12.7125 124.008 18.7764 124.008 26.2371C124.008 33.6978 130.044 39.7546 137.492 39.7546C139.892 39.7598 142.249 39.1198 144.317 37.9016C146.385 36.6834 148.087 34.9318 149.246 32.8301L143.099 29.4066ZM82.4767 1.50204H90.1738V39.2519H82.4767V1.50204ZM152.271 1.50204V39.2519H159.959V27.9321L169.095 39.2519H178.948L167.332 25.8032L178.085 13.2575H168.661L159.959 23.6744V1.5038H152.269L152.271 1.50204ZM113.039 29.4824C111.925 31.322 109.623 32.6854 107.032 32.6854C106.186 32.685 105.348 32.5178 104.567 32.1934C103.786 31.869 103.076 31.3938 102.478 30.7949C101.881 30.196 101.407 29.4852 101.084 28.7032C100.762 27.9211 100.596 27.0831 100.598 26.2371C100.596 25.3907 100.761 24.5523 101.084 23.7697C101.406 22.9872 101.88 22.2758 102.477 21.6763C103.075 21.0768 103.785 20.601 104.566 20.2759C105.348 19.9508 106.185 19.7829 107.032 19.7817C109.623 19.7817 111.925 21.221 113.039 23.0958V29.4824ZM113.039 13.2558V16.3247C111.78 14.1941 108.651 12.7125 105.379 12.7125C98.6205 12.7125 93.301 18.7005 93.301 26.1965C93.301 33.6996 98.6205 39.7546 105.379 39.7546C108.651 39.7546 111.78 38.2731 113.039 36.1512V39.2184H120.736V13.2558H113.039ZM9.9912 29.4401C9.9912 32.0734 7.86939 34.2023 5.24314 34.2023C4.61864 34.2018 4.00036 34.0782 3.42368 33.8385C2.84701 33.5989 2.32326 33.2478 1.88241 32.8055C1.44156 32.3632 1.09226 31.8382 0.854511 31.2608C0.616758 30.6833 0.495215 30.0646 0.496838 29.4401C0.495679 28.8162 0.617602 28.1981 0.855628 27.6213C1.09365 27.0446 1.44311 26.5204 1.88398 26.0789C2.32485 25.6374 2.84849 25.2871 3.4249 25.0483C4.00131 24.8094 4.61918 24.6865 5.24314 24.6868H9.9912V29.4401ZM12.3599 29.4401C12.3588 28.816 12.4808 28.1978 12.7189 27.6209C12.957 27.044 13.3066 26.5198 13.7477 26.0783C14.1888 25.6367 14.7126 25.2865 15.2892 25.0477C15.8658 24.809 16.4839 24.6863 17.108 24.6868C17.7321 24.6865 18.3501 24.8094 18.9266 25.0484C19.5032 25.2874 20.0269 25.6378 20.4678 26.0795C20.9087 26.5212 21.2581 27.0456 21.496 27.6226C21.7339 28.1995 21.8557 28.8178 21.8543 29.4419V41.3402C21.8557 41.9646 21.734 42.5831 21.4961 43.1604C21.2583 43.7376 20.9089 44.2623 20.4681 44.7045C20.0273 45.1466 19.5036 45.4975 18.927 45.7371C18.3505 45.9766 17.7323 46.1002 17.108 46.1006C16.4833 46.1004 15.8649 45.977 15.288 45.7374C14.7111 45.4978 14.1872 45.1468 13.7461 44.7045C13.3051 44.2621 12.9556 43.7371 12.7178 43.1595C12.4799 42.582 12.3583 41.9631 12.3599 41.3385V29.4401ZM17.108 10.3367C16.4833 10.3365 15.8649 10.2131 15.288 9.97351C14.7111 9.73393 14.1872 9.38292 13.7461 8.94057C13.3051 8.49822 12.9556 7.97322 12.7178 7.39564C12.4799 6.81805 12.3583 6.19923 12.3599 5.57458C12.3588 4.95048 12.4808 4.33228 12.7189 3.7554C12.957 3.17852 13.3066 2.65429 13.7477 2.21274C14.1888 1.77118 14.7126 1.42099 15.2892 1.18221C15.8658 0.943434 16.4839 0.820764 17.108 0.821229C17.7319 0.820996 18.3498 0.943835 18.9262 1.18272C19.5026 1.4216 20.0263 1.77183 20.4671 2.21336C20.908 2.65489 21.2575 3.17904 21.4955 3.75581C21.7335 4.33258 21.8555 4.95063 21.8543 5.57458V10.3367H17.108ZM17.108 12.7549C17.7319 12.7546 18.3498 12.8775 18.9262 13.1164C19.5026 13.3552 20.0263 13.7055 20.4671 14.147C20.908 14.5885 21.2575 15.1127 21.4955 15.6895C21.7335 16.2662 21.8555 16.8843 21.8543 17.5082C21.8543 20.1398 19.7325 22.2704 17.108 22.2704H5.20962C4.58498 22.2702 3.96651 22.1467 3.38963 21.9072C2.81275 21.6676 2.2888 21.3166 1.84776 20.8742C1.40672 20.4319 1.05727 19.9069 0.819404 19.3293C0.58154 18.7517 0.45994 18.1329 0.461564 17.5082C0.460404 16.8841 0.582384 16.2659 0.82052 15.689C1.05866 15.1122 1.40827 14.5879 1.84933 14.1464C2.29039 13.7048 2.81423 13.3546 3.39085 13.1159C3.96746 12.8771 4.58552 12.7544 5.20962 12.7549H17.108ZM36.1302 17.5082C36.1291 16.8843 36.251 16.2662 36.489 15.6895C36.727 15.1127 37.0765 14.5885 37.5174 14.147C37.9582 13.7055 38.4819 13.3552 39.0583 13.1164C39.6347 12.8775 40.2526 12.7546 40.8765 12.7549C41.5006 12.7544 42.1187 12.8771 42.6953 13.1159C43.2719 13.3546 43.7958 13.7048 44.2368 14.1464C44.6779 14.5879 45.0275 15.1122 45.2656 15.689C45.5038 16.2659 45.6257 16.8841 45.6246 17.5082C45.6246 20.1398 43.5028 22.2704 40.8765 22.2704H36.1302V17.5082ZM33.7597 17.5082C33.7597 20.1398 31.6379 22.2704 29.0134 22.2704C28.3888 22.2702 27.7703 22.1467 27.1934 21.9072C26.6166 21.6676 26.0926 21.3166 25.6516 20.8742C25.2105 20.4319 24.8611 19.9069 24.6232 19.3293C24.3853 18.7517 24.2637 18.1329 24.2654 17.5082V5.57458C24.2642 4.95048 24.3862 4.33228 24.6243 3.7554C24.8625 3.17852 25.2121 2.65429 25.6531 2.21274C26.0942 1.77118 26.618 1.42099 27.1946 1.18221C27.7713 0.943434 28.3893 0.820764 29.0134 0.821229C29.6374 0.820996 30.2552 0.943835 30.8317 1.18272C31.4081 1.4216 31.9317 1.77183 32.3726 2.21336C32.8134 2.65489 33.1629 3.17904 33.4009 3.75581C33.639 4.33258 33.7609 4.95063 33.7597 5.57458V17.5082ZM29.0134 36.5851C29.6375 36.5849 30.2555 36.7078 30.8321 36.9468C31.4086 37.1858 31.9323 37.5362 32.3732 37.9779C32.8141 38.4196 33.1635 38.944 33.4014 39.5209C33.6394 40.0979 33.7611 40.7161 33.7597 41.3402C33.7611 41.9646 33.6394 42.5831 33.4015 43.1604C33.1637 43.7376 32.8144 44.2623 32.3735 44.7045C31.9327 45.1466 31.409 45.4975 30.8325 45.7371C30.2559 45.9766 29.6378 46.1002 29.0134 46.1006C28.3888 46.1004 27.7703 45.977 27.1934 45.7374C26.6166 45.4978 26.0926 45.1468 25.6516 44.7045C25.2105 44.2621 24.8611 43.7371 24.6232 43.1595C24.3853 42.582 24.2637 41.9631 24.2654 41.3385V36.5851H29.0134ZM29.0134 34.2023C28.3888 34.202 27.7703 34.0786 27.1934 33.839C26.6166 33.5995 26.0926 33.2484 25.6516 32.8061C25.2105 32.3637 24.8611 31.8388 24.6232 31.2612C24.3853 30.6836 24.2637 30.0648 24.2654 29.4401C24.2642 28.816 24.3862 28.1978 24.6243 27.6209C24.8625 27.044 25.2121 26.5198 25.6531 26.0783C26.0942 25.6367 26.618 25.2865 27.1946 25.0477C27.7713 24.809 28.3893 24.6863 29.0134 24.6868H40.9118C41.5359 24.6865 42.1539 24.8094 42.7304 25.0484C43.307 25.2874 43.8307 25.6378 44.2716 26.0795C44.7125 26.5212 45.0619 27.0456 45.2998 27.6226C45.5377 28.1995 45.6595 28.8178 45.6581 29.4419C45.6595 30.0662 45.5378 30.6847 45.2999 31.262C45.0621 31.8393 44.7127 32.364 44.2719 32.8061C43.8311 33.2482 43.3074 33.5991 42.7308 33.8387C42.1543 34.0783 41.5361 34.2018 40.9118 34.2023H29.0134Z" fill="#A9A9B9"/>
</svg>
