<svg width="15" height="11" viewBox="0 0 15 11" fill="none" xmlns="http://www.w3.org/2000/svg">
<path d="M14.0319 1.70588C13.9431 1.61298 13.8 1.58961 13.6826 1.64691C13.6096 1.68252 13.4723 1.72925 13.3093 1.77542C13.5149 1.51507 13.6802 1.22356 13.7532 0.96154C13.7848 0.848609 13.7386 0.729558 13.6382 0.662245C13.5377 0.595487 13.404 0.595487 13.3035 0.662245C13.1452 0.767387 12.3812 1.08337 11.8982 1.18573C10.8065 0.275052 9.53609 0.18048 8.21545 0.91481C7.14189 1.51173 6.90825 2.7256 6.95381 3.46549C4.49653 3.24019 2.96912 2.00407 2.10934 0.98101C2.04918 0.909246 1.95222 0.871417 1.8611 0.87698C1.76531 0.883656 1.67886 0.93428 1.6298 1.01272C1.22327 1.66639 1.11054 2.38903 1.30504 3.10278C1.41135 3.4922 1.59709 3.83544 1.81262 4.1136C1.70924 4.0652 1.60936 4.00456 1.51532 3.93224C1.42887 3.86437 1.30796 3.85157 1.20575 3.89663C1.10411 3.94281 1.03928 4.04072 1.03928 4.14809C1.03928 5.37364 1.84416 6.19142 2.59589 6.61866C2.4744 6.60475 2.34765 6.57916 2.21973 6.54189C2.10992 6.51018 1.99077 6.54189 1.91484 6.62422C1.8389 6.706 1.8208 6.82283 1.86811 6.92241C2.29041 7.81195 3.09062 8.42389 4.08065 8.64586C3.2162 9.12929 2.05911 9.36628 0.999562 9.25001C0.8623 9.23165 0.731463 9.31454 0.68824 9.44027C0.645017 9.566 0.701674 9.70396 0.822582 9.76849C2.43001 10.628 3.88323 10.9351 5.13903 10.9351C6.96666 10.9351 8.37725 10.2853 9.23586 9.74179C11.5506 8.27869 12.9933 5.65179 12.7924 3.30138C13.1633 3.04047 13.7182 2.55871 14.0622 2.04078C14.1335 1.9362 14.1206 1.79823 14.0319 1.70588Z" fill="#0A142F"/>
</svg>
